<svg width="100" height="100" viewBox="0 0 100 100" fill="none" xmlns="http://www.w3.org/2000/svg">
<path d="M34.375 72.8125H33.75C32.8125 72.5 23.75 68.125 23.75 62.1875V55.625C23.75 54.6875 24.375 54.0625 25.3125 54.0625C26.25 54.0625 26.875 54.6875 26.875 55.625V62.1875C26.875 65.3125 31.875 68.4375 34.375 69.6875C36.875 68.4375 41.875 65.3125 41.875 62.1875V55.625C41.875 54.6875 42.5 54.0625 43.4375 54.0625C44.375 54.0625 45 54.6875 45 55.625V62.1875C45 68.125 35.9375 72.1875 35 72.8125H34.375Z" fill="#0D4E88"/>
<path d="M34.375 59.375C24.0625 59.375 15.625 50.9375 15.625 40.625V35.9375C15.625 35 16.25 34.375 17.1875 34.375C18.125 34.375 18.75 35 18.75 35.9375V40.625C18.75 49.375 25.625 56.25 34.375 56.25C43.125 56.25 50 49.375 50 40.625V35.9375C50 35 50.625 34.375 51.5625 34.375C52.5 34.375 53.125 35 53.125 35.9375V40.625C53.125 50.9375 44.6875 59.375 34.375 59.375Z" fill="#0D4E88"/>
<path d="M51.5625 36.8736H50.625C49.6875 36.8736 49.0625 36.2486 49.0625 35.3111C49.0625 34.3736 49.6875 33.7486 50.3125 33.7486L53.125 25.9361C53.4375 24.6861 53.125 23.1236 52.1875 22.1861C51.25 20.9361 50 20.3111 48.4375 20.3111C47.5 20.3111 46.875 19.6861 46.875 18.7486C46.875 16.8736 45.9375 14.9986 44.6875 13.7486C43.4375 12.4986 41.5625 12.1861 39.6875 12.4986L20.9375 15.6236C19.375 15.9361 17.8125 16.8736 16.875 18.1236C15.9375 19.6861 15.3125 21.2486 15.625 23.1236L18.4375 33.7486C19.0625 33.7486 19.6875 34.3736 19.6875 35.3111C19.6875 36.2486 19.0625 36.8736 18.125 36.8736H17.1875C16.5625 36.8736 15.9375 36.2486 15.625 35.6236L12.5 23.7486C11.875 21.2486 12.5 18.7486 14.0625 16.5611C15.625 14.3736 17.8125 13.1236 20.3125 12.4986L39.0625 9.37361C41.875 9.06111 44.375 9.68611 46.5625 11.5611C48.4375 13.1236 49.375 15.3111 49.6875 17.4986C51.5625 17.8111 53.125 18.7486 54.375 20.3111C55.9375 22.1861 56.5625 24.6861 55.9375 26.8736L52.8125 35.6236C52.8125 36.2486 52.1875 36.8736 51.5625 36.8736Z" fill="#0D4E88"/>
<path d="M51.25 36.8771H50.3125C48.125 36.8771 45.9375 35.0021 45.9375 32.5021V27.8146C40.3125 31.8771 32.8125 33.4396 25.9375 32.1896L23.125 31.5646C22.8125 31.5646 22.1875 32.1896 22.1875 32.8146C22.1875 35.0021 20.3125 37.1896 17.8125 37.1896H17.5C16.5625 37.1896 15.9375 36.5646 15.9375 35.6271C15.9375 34.6896 16.5625 34.0646 17.5 34.0646H18.4375C19.0625 34.0646 19.6875 33.4396 19.6875 32.8146C19.6875 30.6271 21.5625 28.4396 24.0625 28.4396L27.1875 29.0646C33.4375 30.3146 40 28.7521 45 25.0021C45.9375 24.3771 47.1875 24.3771 48.125 24.6896C49.0625 25.3146 49.6875 26.2521 49.6875 27.1896V32.5021C49.6875 33.1271 50.3125 33.7521 50.9375 33.7521H51.875C52.8125 33.7521 53.4375 34.3771 53.4375 35.3146C53.4375 36.2521 52.1875 36.8771 51.25 36.8771ZM67.1875 93.7521H1.5625C0.625 93.7521 0 93.1271 0 92.1896V80.6271C0 74.3771 4.0625 68.7521 10 66.5646L24.6875 61.5646C25.625 61.2521 26.25 61.8771 26.5625 62.5021C26.875 63.4396 26.25 64.0646 25.625 64.3771L10.9375 69.3771C6.25 71.2521 3.125 75.6271 3.125 80.6271V90.6271H65.625V80.6271C65.625 75.6271 62.5 71.2521 57.8125 69.6896L43.125 64.6896C42.1875 64.3771 41.875 63.4396 42.1875 62.8146C42.5 62.1896 43.4375 61.5646 44.0625 61.8771L58.75 66.8771C64.6875 68.7521 68.75 74.3771 68.75 80.9396V92.5021C68.75 93.1271 68.125 93.7521 67.1875 93.7521Z" fill="#0D4E88"/>
<path d="M67.1875 93.75H51.5625C50.625 93.75 50 93.125 50 92.1875V89.6875C50 80.9375 56.5625 73.4375 65.3125 72.5C65.9375 72.5 66.5625 72.8125 66.875 73.125C68.125 75.3125 69.0625 78.125 69.0625 80.625V92.1875C68.75 93.125 68.125 93.75 67.1875 93.75ZM53.125 90.625H65.625V80.625C65.625 79.0625 65.3125 77.1875 64.375 75.625C57.8125 76.875 52.8125 82.8125 52.8125 89.6875V90.625H53.125ZM17.1875 93.75H1.5625C0.625 93.75 0 93.125 0 92.1875V80.625C0 78.125 0.625 75.3125 2.1875 73.125C2.5 72.5 3.125 72.1875 3.75 72.5C12.1875 73.4375 18.75 80.9375 18.75 89.6875V92.1875C18.75 93.125 18.125 93.75 17.1875 93.75ZM3.125 90.625H15.625V89.6875C15.625 82.8125 10.625 77.1875 4.0625 75.625C3.4375 77.1875 3.125 79.0625 3.125 80.625V90.625ZM50 51.875H39.0625C38.125 51.875 37.5 51.25 37.5 50.3125C37.5 49.375 38.125 48.75 39.0625 48.75H50C53.4375 48.75 56.25 45.9375 56.25 42.5V37.1875C56.25 36.25 56.875 35.625 57.8125 35.625C58.75 35.625 59.375 36.25 59.375 37.1875V42.5C59.375 47.5 55 51.875 50 51.875ZM17.1875 43.75H14.0625C11.5625 43.75 9.375 41.5625 9.375 39.0625V35.9375C9.375 33.4375 11.5625 31.25 14.0625 31.25H15.625C16.5625 31.25 17.1875 31.875 17.1875 32.8125C17.1875 33.75 16.5625 34.375 15.625 34.375H14.0625C13.125 34.375 12.5 35 12.5 35.9375V39.0625C12.5 40 13.125 40.625 14.0625 40.625H15.625V37.5C15.625 36.5625 16.25 35.9375 17.1875 35.9375C18.125 35.9375 18.75 36.5625 18.75 37.5V42.1875C18.75 43.125 18.125 43.75 17.1875 43.75Z" fill="#0D4E88"/>
<path d="M54.6875 43.75H51.5625C50.625 43.75 50 43.125 50 42.1875V37.5C50 36.5625 50.625 35.9375 51.5625 35.9375C52.5 35.9375 53.125 36.5625 53.125 37.5V40.625H54.6875C55.625 40.625 56.25 40 56.25 39.0625V35.9375C56.25 35 55.625 34.375 54.6875 34.375H53.125C52.1875 34.375 51.5625 33.75 51.5625 32.8125C51.5625 31.875 52.1875 31.25 53.125 31.25H54.6875C57.1875 31.25 59.375 33.4375 59.375 35.9375V39.0625C59.375 41.5625 57.1875 43.75 54.6875 43.75Z" fill="#0D4E88"/>
<path d="M75 56.25C69.6875 56.25 65 54.6875 60.625 51.5625C60 50.9375 59.6875 50 60.3125 49.375C60.9375 48.75 61.875 48.4375 62.5 49.0625C66.25 51.5625 70.625 53.125 75 53.125C87.1875 53.125 96.875 43.4375 96.875 31.25C96.875 19.0625 87.1875 9.375 75 9.375C68.4375 9.375 62.5 12.1875 58.125 17.1875C57.5 17.8125 56.5625 17.8125 55.9375 17.5C55.3125 16.875 55.3125 15.9375 55.625 15.3125C60.625 9.375 67.5 6.25 75 6.25C88.75 6.25 100 17.5 100 31.25C100 45 88.75 56.25 75 56.25Z" fill="#0D4E88"/>
<path d="M71.2461 17.0161C71.1353 17.0213 71.0305 17.0677 70.952 17.1462L69.2527 18.8447C69.2068 18.8902 69.1715 18.9452 69.149 19.0058C69.1266 19.0665 69.1176 19.1312 69.1227 19.1957C69.1278 19.2601 69.1468 19.3226 69.1785 19.379C69.2102 19.4353 69.2537 19.4841 69.3062 19.5219L78.5087 26.1705C78.5946 26.2323 78.6997 26.2615 78.8052 26.2528C78.9107 26.2441 79.0096 26.1982 79.0843 26.1233L82.2228 22.9857C82.2731 22.9356 82.3106 22.8742 82.3324 22.8067C82.3541 22.7391 82.3594 22.6674 82.3478 22.5974C82.3362 22.5274 82.308 22.4612 82.2657 22.4042C82.2234 22.3473 82.168 22.3013 82.1043 22.2701L71.4618 17.0607C71.3947 17.028 71.3206 17.0127 71.2461 17.0161ZM71.3557 18.0008L81.1526 22.7959L78.7225 25.2259L70.2516 19.1058L71.3557 18.0008ZM84.7465 25.0548C84.6868 25.054 84.6276 25.0652 84.5723 25.0877C84.5171 25.1102 84.4669 25.1436 84.4248 25.1858L81.2845 28.3252C81.2097 28.4003 81.1641 28.4996 81.156 28.6053C81.1478 28.7109 81.1776 28.8161 81.2399 28.9018L87.8876 38.1034C87.9255 38.1555 87.9742 38.1988 88.0303 38.2303C88.0865 38.2618 88.1489 38.2807 88.2131 38.2858C88.2773 38.2909 88.3418 38.282 88.4022 38.2597C88.4627 38.2375 88.5175 38.2024 88.5631 38.1569L90.2616 36.4584C90.3274 36.3927 90.3711 36.3081 90.3864 36.2164C90.4018 36.1247 90.388 36.0304 90.3471 35.9469L85.1394 25.3052C85.1033 25.2315 85.0475 25.1691 84.9781 25.1251C84.9088 25.081 84.8286 25.0561 84.7465 25.0548ZM84.6128 26.2578L89.407 36.0529L88.3038 37.1561L82.1827 28.687L84.6128 26.2578Z" fill="#0D4E88"/>
<path d="M86.5839 18.3804C85.9575 18.3804 85.3293 18.6192 84.8525 19.096L70.7319 33.2156L70.1322 32.8699L68.7884 32.0902L67.4428 31.3122C67.3578 31.2631 67.2589 31.2435 67.1616 31.2564C67.0643 31.2693 66.9739 31.314 66.9046 31.3835L65.2061 33.082C65.1613 33.1268 65.1266 33.1807 65.1042 33.24C65.0819 33.2994 65.0725 33.3628 65.0766 33.426C65.0808 33.4893 65.0984 33.5509 65.1282 33.6069C65.1581 33.6628 65.1995 33.7117 65.2498 33.7503L70.0155 37.3932L73.6601 42.1589C73.6987 42.2092 73.7475 42.2507 73.8034 42.2807C73.8593 42.3106 73.9209 42.3283 73.9842 42.3325C74.0475 42.3367 74.1109 42.3274 74.1703 42.3051C74.2296 42.2829 74.2836 42.2482 74.3285 42.2034L76.0269 40.5049C76.0964 40.4353 76.1408 40.3447 76.1534 40.2472C76.166 40.1497 76.146 40.0508 76.0964 39.9658L74.5405 37.2764L74.193 36.6776L88.3145 22.5561C88.7724 22.0968 89.0295 21.4747 89.0295 20.8261C89.0295 20.1774 88.7724 19.5553 88.3145 19.096C88.0874 18.8686 87.8176 18.6883 87.5206 18.5655C87.2236 18.4427 86.9053 18.3798 86.5839 18.3804ZM86.5839 19.2644C86.9805 19.2644 87.377 19.4185 87.6845 19.726C88.2993 20.3408 88.2993 21.3104 87.6845 21.9252L73.3286 36.2811C73.2617 36.348 73.2179 36.4346 73.2034 36.5282C73.189 36.6217 73.2048 36.7175 73.2484 36.8015L73.3705 37.035C73.3734 37.0407 73.3763 37.0463 73.3794 37.0519L73.7697 37.7238L75.1554 40.1164L74.0585 41.2134L70.6874 36.805C70.6633 36.7735 70.6351 36.7454 70.6036 36.7213L66.197 33.352L66.6863 32.8619L67.2931 32.2559L68.3411 32.861L69.6866 33.6407L70.3586 34.0283C70.3644 34.032 70.3704 34.0356 70.3764 34.039L70.6072 34.1593C70.6914 34.2034 70.7875 34.2194 70.8814 34.205C70.9754 34.1905 71.0623 34.1465 71.1294 34.0791L85.4825 19.726C85.6267 19.5801 85.7984 19.4642 85.9875 19.385C86.1767 19.3058 86.3788 19.2648 86.5839 19.2644Z" fill="#0D4E88"/>
<path fill-rule="evenodd" clip-rule="evenodd" d="M72.0276 34.923C71.912 34.9261 71.802 34.974 71.7211 35.0567L69.4568 37.3237C69.4142 37.3648 69.3803 37.4139 69.3569 37.4683C69.3336 37.5227 69.3213 37.5811 69.3208 37.6403C69.3202 37.6994 69.3315 37.7581 69.3539 37.8129C69.3763 37.8676 69.4094 37.9174 69.4512 37.9592C69.4931 38.001 69.5428 38.0341 69.5976 38.0565C69.6523 38.0789 69.711 38.0902 69.7702 38.0897C69.8293 38.0892 69.8878 38.0769 69.9422 38.0535C69.9965 38.0302 70.0457 37.9962 70.0868 37.9537L72.3502 35.6876C72.4144 35.6251 72.4582 35.5446 72.476 35.4568C72.4938 35.3689 72.4847 35.2778 72.4498 35.1952C72.415 35.1126 72.3561 35.0425 72.2807 34.9939C72.2054 34.9454 72.1172 34.9207 72.0276 34.923Z" fill="#0D4E88"/>
<path fill-rule="evenodd" clip-rule="evenodd" d="M70.9832 21.6436L69.8497 22.7771L70.4797 23.4072L71.6132 22.2737L70.9832 21.6436ZM72.6817 23.3421L70.4156 25.6064L71.0456 26.2364L73.3117 23.973L72.6817 23.3421ZM85.135 35.7972L84.0033 36.9289L84.6333 37.558L85.765 36.4263L85.135 35.7972ZM83.4374 34.0987L81.1713 36.3622L81.8013 36.9931L84.0674 34.7288L83.4374 34.0987Z" fill="#0D4E88"/>
<path d="M71.2461 17.0161C71.1353 17.0213 71.0305 17.0677 70.952 17.1462L69.2527 18.8447C69.2068 18.8902 69.1715 18.9452 69.149 19.0058C69.1266 19.0665 69.1176 19.1312 69.1227 19.1957C69.1278 19.2601 69.1468 19.3226 69.1785 19.379C69.2102 19.4353 69.2537 19.4841 69.3062 19.5219L78.5087 26.1705C78.5946 26.2323 78.6997 26.2615 78.8052 26.2528C78.9107 26.2441 79.0096 26.1982 79.0843 26.1233L82.2228 22.9857C82.2731 22.9356 82.3106 22.8742 82.3324 22.8067C82.3541 22.7391 82.3594 22.6674 82.3478 22.5974C82.3362 22.5274 82.308 22.4612 82.2657 22.4042C82.2234 22.3473 82.168 22.3013 82.1043 22.2701L71.4618 17.0607C71.3947 17.028 71.3206 17.0127 71.2461 17.0161ZM71.3557 18.0008L81.1526 22.7959L78.7225 25.2259L70.2516 19.1058L71.3557 18.0008ZM84.7465 25.0548C84.6868 25.054 84.6276 25.0652 84.5723 25.0877C84.5171 25.1102 84.4669 25.1436 84.4248 25.1858L81.2845 28.3252C81.2097 28.4003 81.1641 28.4996 81.156 28.6053C81.1478 28.7109 81.1776 28.8161 81.2399 28.9018L87.8876 38.1034C87.9255 38.1555 87.9742 38.1988 88.0303 38.2303C88.0865 38.2618 88.1489 38.2807 88.2131 38.2858C88.2773 38.2909 88.3418 38.282 88.4022 38.2597C88.4627 38.2375 88.5175 38.2024 88.5631 38.1569L90.2616 36.4584C90.3274 36.3927 90.3711 36.3081 90.3864 36.2164C90.4018 36.1247 90.388 36.0304 90.3471 35.9469L85.1394 25.3052C85.1033 25.2315 85.0475 25.1691 84.9781 25.1251C84.9088 25.081 84.8286 25.0561 84.7465 25.0548ZM84.6128 26.2578L89.407 36.0529L88.3038 37.1561L82.1827 28.687L84.6128 26.2578Z" stroke="#0D4E88"/>
<path d="M86.5839 18.3804C85.9575 18.3804 85.3293 18.6192 84.8525 19.096L70.7319 33.2156L70.1322 32.8699L68.7884 32.0902L67.4428 31.3122C67.3578 31.2631 67.2589 31.2435 67.1616 31.2564C67.0643 31.2693 66.9739 31.314 66.9046 31.3835L65.2061 33.082C65.1613 33.1268 65.1266 33.1807 65.1042 33.24C65.0819 33.2994 65.0725 33.3628 65.0766 33.426C65.0808 33.4893 65.0984 33.5509 65.1282 33.6069C65.1581 33.6628 65.1995 33.7117 65.2498 33.7503L70.0155 37.3932L73.6601 42.1589C73.6987 42.2092 73.7475 42.2507 73.8034 42.2807C73.8593 42.3106 73.9209 42.3283 73.9842 42.3325C74.0475 42.3367 74.1109 42.3274 74.1703 42.3051C74.2296 42.2829 74.2836 42.2482 74.3285 42.2034L76.0269 40.5049C76.0964 40.4353 76.1408 40.3447 76.1534 40.2472C76.166 40.1497 76.146 40.0508 76.0964 39.9658L74.5405 37.2764L74.193 36.6776L88.3145 22.5561C88.7724 22.0968 89.0295 21.4747 89.0295 20.8261C89.0295 20.1774 88.7724 19.5553 88.3145 19.096C88.0874 18.8686 87.8176 18.6883 87.5206 18.5655C87.2236 18.4427 86.9053 18.3798 86.5839 18.3804ZM86.5839 19.2644C86.9805 19.2644 87.377 19.4185 87.6845 19.726C88.2993 20.3408 88.2993 21.3104 87.6845 21.9252L73.3286 36.2811C73.2617 36.348 73.2179 36.4346 73.2034 36.5282C73.189 36.6217 73.2048 36.7175 73.2484 36.8015L73.3705 37.035C73.3734 37.0407 73.3763 37.0463 73.3794 37.0519L73.7697 37.7238L75.1554 40.1164L74.0585 41.2134L70.6874 36.805C70.6633 36.7735 70.6351 36.7454 70.6036 36.7213L66.197 33.352L66.6863 32.8619L67.2931 32.2559L68.3411 32.861L69.6866 33.6407L70.3586 34.0283C70.3644 34.032 70.3704 34.0356 70.3764 34.039L70.6072 34.1593C70.6914 34.2034 70.7875 34.2194 70.8814 34.205C70.9754 34.1905 71.0623 34.1465 71.1294 34.0791L85.4825 19.726C85.6267 19.5801 85.7984 19.4642 85.9875 19.385C86.1767 19.3058 86.3788 19.2648 86.5839 19.2644Z" stroke="#0D4E88"/>
<path fill-rule="evenodd" clip-rule="evenodd" d="M72.0276 34.923C71.912 34.9261 71.802 34.974 71.7211 35.0567L69.4568 37.3237C69.4142 37.3648 69.3803 37.4139 69.3569 37.4683C69.3336 37.5227 69.3213 37.5811 69.3208 37.6403C69.3202 37.6994 69.3315 37.7581 69.3539 37.8129C69.3763 37.8676 69.4094 37.9174 69.4512 37.9592C69.4931 38.001 69.5428 38.0341 69.5976 38.0565C69.6523 38.0789 69.711 38.0902 69.7702 38.0897C69.8293 38.0892 69.8878 38.0769 69.9422 38.0535C69.9965 38.0302 70.0457 37.9962 70.0868 37.9537L72.3502 35.6876C72.4144 35.6251 72.4582 35.5446 72.476 35.4568C72.4938 35.3689 72.4847 35.2778 72.4498 35.1952C72.415 35.1126 72.3561 35.0425 72.2807 34.9939C72.2054 34.9454 72.1172 34.9207 72.0276 34.923Z" stroke="#0D4E88"/>
<path fill-rule="evenodd" clip-rule="evenodd" d="M70.9832 21.6436L69.8497 22.7771L70.4797 23.4072L71.6132 22.2737L70.9832 21.6436ZM72.6817 23.3421L70.4156 25.6064L71.0456 26.2364L73.3117 23.973L72.6817 23.3421ZM85.135 35.7972L84.0033 36.9289L84.6333 37.558L85.765 36.4263L85.135 35.7972ZM83.4374 34.0987L81.1713 36.3622L81.8013 36.9931L84.0674 34.7288L83.4374 34.0987Z" stroke="#0D4E88"/>
</svg>
