<svg width="26" height="18" viewBox="0 0 26 18" fill="none" xmlns="http://www.w3.org/2000/svg">
<path fill-rule="evenodd" clip-rule="evenodd" d="M25.0913 16.8737C24.8185 17.038 24.5007 17.1321 24.1615 17.1321H1.83863C1.49938 17.1321 1.18159 17.038 0.908785 16.8737L8.3572 9.23909L10.1956 11.1234C10.906 11.8516 11.8503 12.2146 13.0001 12.2146C14.1498 12.2146 15.0941 11.8516 15.8046 11.1234L17.6429 9.23909L25.0913 16.8737ZM25.7479 16.2007L18.2995 8.56607L25.7479 0.931441C25.9082 1.21106 26.0001 1.5368 26.0001 1.88454V15.2476C26.0001 15.5953 25.9082 15.9211 25.7479 16.2007ZM0.252186 16.2007C0.0919457 15.9211 6.10352e-05 15.5953 6.10352e-05 15.2476V1.88454C6.10352e-05 1.5368 0.0919457 1.21106 0.252186 0.931441L7.7006 8.56607L0.252186 16.2007ZM25.0913 0.258428L15.148 10.4504C14.6203 10.9913 13.9138 11.2628 13.0001 11.2628C12.0863 11.2628 11.3798 10.9913 10.8522 10.4504L0.908785 0.258428C1.18159 0.0941813 1.49938 0 1.83863 0H24.1615C24.5007 0 24.8185 0.0941813 25.0913 0.258428Z" fill="white"/>
</svg>
