<svg width="26" height="26" viewBox="0 0 26 26" fill="none" xmlns="http://www.w3.org/2000/svg">
<path d="M22.2625 14.25C21.9875 14.25 21.7 14.1625 21.425 14.1C20.8685 13.9756 20.3214 13.8127 19.7875 13.6125C19.2076 13.4015 18.5702 13.4125 17.9979 13.6433C17.4256 13.874 16.9588 14.3083 16.6875 14.8625L16.4125 15.4375C15.1985 14.749 14.077 13.9089 13.075 12.9375C12.1035 11.9355 11.2635 10.814 10.575 9.6L11.15 9.3375C11.7042 9.06615 12.1384 8.59941 12.3692 8.02711C12.6 7.45482 12.6109 6.81739 12.4 6.2375C12.2015 5.69879 12.0386 5.1476 11.9125 4.5875C11.85 4.3125 11.8 4.025 11.7625 3.75C11.6107 2.86952 11.1495 2.07218 10.462 1.50155C9.77449 0.930921 8.90584 0.624511 8.01247 0.6375H4.24997C3.72153 0.636808 3.19891 0.74781 2.71637 0.96323C2.23383 1.17865 1.80226 1.49362 1.44997 1.8875C1.09037 2.29207 0.822615 2.76969 0.6651 3.28754C0.507585 3.8054 0.464045 4.35122 0.537471 4.8875C1.21695 10.0902 3.59398 14.9233 7.29997 18.6375C11.0142 22.3435 15.8473 24.7205 21.05 25.4C21.2122 25.4124 21.3752 25.4124 21.5375 25.4C22.4592 25.4014 23.3492 25.0632 24.0375 24.45C24.4313 24.0977 24.7463 23.6661 24.9617 23.1836C25.1772 22.7011 25.2882 22.1784 25.2875 21.65V17.9C25.2807 17.0363 24.976 16.2014 24.4249 15.5364C23.8737 14.8713 23.1099 14.417 22.2625 14.25ZM22.875 21.75C22.8746 21.9244 22.8376 22.0968 22.7666 22.2561C22.6956 22.4155 22.592 22.5581 22.4625 22.675C22.3255 22.7998 22.1624 22.8926 21.9852 22.9467C21.8079 23.0007 21.6208 23.0147 21.4375 22.9875C16.7728 22.3783 12.4378 20.2525 9.09997 16.9375C5.75931 13.5968 3.61501 9.24671 2.99997 4.5625C2.97282 4.37917 2.98677 4.19209 3.04081 4.01481C3.09486 3.83754 3.18765 3.6745 3.31247 3.5375C3.43075 3.40644 3.57544 3.30192 3.73703 3.23082C3.89862 3.15972 4.07344 3.12366 4.24997 3.125H7.99997C8.28892 3.11794 8.57139 3.21123 8.7993 3.389C9.02721 3.56677 9.18647 3.81802 9.24997 4.1C9.24997 4.4375 9.36247 4.7875 9.43747 5.125C9.58194 5.77983 9.77412 6.42321 10.0125 7.05L8.26247 7.875C7.96168 8.01308 7.72792 8.26482 7.61247 8.575C7.48745 8.87933 7.48745 9.22067 7.61247 9.525C9.41147 13.3784 12.509 16.476 16.3625 18.275C16.6668 18.4 17.0081 18.4 17.3125 18.275C17.6227 18.1595 17.8744 17.9258 18.0125 17.625L18.8 15.875C19.4449 16.1102 20.1046 16.3022 20.775 16.45C21.1 16.525 21.45 16.5875 21.7875 16.6375C22.0694 16.701 22.3207 16.8603 22.4985 17.0882C22.6762 17.3161 22.7695 17.5985 22.7625 17.8875L22.875 21.75ZM15.5 0.5C15.2125 0.5 14.9125 0.5 14.625 0.5C14.2934 0.528179 13.9867 0.6869 13.7722 0.941247C13.5577 1.19559 13.453 1.52473 13.4812 1.85625C13.5094 2.18777 13.6681 2.49452 13.9225 2.70901C14.1768 2.92351 14.5059 3.02818 14.8375 3H15.5C17.4891 3 19.3967 3.79018 20.8033 5.1967C22.2098 6.60322 23 8.51088 23 10.5C23 10.725 23 10.9375 23 11.1625C22.9723 11.4923 23.0764 11.8196 23.2897 12.0726C23.5029 12.3257 23.8078 12.4839 24.1375 12.5125H24.2375C24.5504 12.5138 24.8524 12.3976 25.0838 12.187C25.3153 11.9764 25.4593 11.6867 25.4875 11.375C25.4875 11.0875 25.4875 10.7875 25.4875 10.5C25.4875 7.85 24.4356 5.30835 22.563 3.43335C20.6903 1.55834 18.15 0.503313 15.5 0.5ZM18 10.5C18 10.8315 18.1317 11.1495 18.3661 11.3839C18.6005 11.6183 18.9184 11.75 19.25 11.75C19.5815 11.75 19.8994 11.6183 20.1339 11.3839C20.3683 11.1495 20.5 10.8315 20.5 10.5C20.5 9.17392 19.9732 7.90215 19.0355 6.96447C18.0978 6.02678 16.8261 5.5 15.5 5.5C15.1684 5.5 14.8505 5.6317 14.6161 5.86612C14.3817 6.10054 14.25 6.41848 14.25 6.75C14.25 7.08152 14.3817 7.39946 14.6161 7.63388C14.8505 7.8683 15.1684 8 15.5 8C16.163 8 16.7989 8.26339 17.2677 8.73223C17.7366 9.20107 18 9.83696 18 10.5Z" fill="white"/>
</svg>
