<svg width="48" height="48" viewBox="0 0 48 48" fill="none" xmlns="http://www.w3.org/2000/svg">
<path d="M16.4999 34.9531H16.1999C15.7499 34.8031 11.3999 32.7031 11.3999 29.8531V26.7031C11.3999 26.2531 11.6999 25.9531 12.1499 25.9531C12.5999 25.9531 12.8999 26.2531 12.8999 26.7031V29.8531C12.8999 31.3531 15.2999 32.8531 16.4999 33.4531C17.6999 32.8531 20.0999 31.3531 20.0999 29.8531V26.7031C20.0999 26.2531 20.3999 25.9531 20.8499 25.9531C21.2999 25.9531 21.5999 26.2531 21.5999 26.7031V29.8531C21.5999 32.7031 17.2499 34.6531 16.7999 34.9531H16.4999Z" fill="#0D4E88"/>
<path d="M16.5 28.5C11.55 28.5 7.5 24.45 7.5 19.5V17.25C7.5 16.8 7.8 16.5 8.25 16.5C8.7 16.5 9 16.8 9 17.25V19.5C9 23.7 12.3 27 16.5 27C20.7 27 24 23.7 24 19.5V17.25C24 16.8 24.3 16.5 24.75 16.5C25.2 16.5 25.5 16.8 25.5 17.25V19.5C25.5 24.45 21.45 28.5 16.5 28.5Z" fill="#0D4E88"/>
<path d="M24.75 17.6978H24.3C23.85 17.6978 23.55 17.3978 23.55 16.9478C23.55 16.4978 23.85 16.1978 24.15 16.1978L25.5 12.4478C25.65 11.8478 25.5 11.0978 25.05 10.6478C24.6 10.0478 24 9.74777 23.25 9.74777C22.8 9.74777 22.5 9.44777 22.5 8.99777C22.5 8.09777 22.05 7.19777 21.45 6.59777C20.85 5.99777 19.95 5.84777 19.05 5.99777L10.05 7.49777C9.29997 7.64777 8.54997 8.09777 8.09997 8.69777C7.64997 9.44777 7.34997 10.1978 7.49997 11.0978L8.84997 16.1978C9.14997 16.1978 9.44997 16.4978 9.44997 16.9478C9.44997 17.3978 9.14997 17.6978 8.69997 17.6978H8.24997C7.94997 17.6978 7.64997 17.3978 7.49997 17.0978L5.99997 11.3978C5.69997 10.1978 5.99997 8.99777 6.74997 7.94777C7.49997 6.89777 8.54997 6.29777 9.74997 5.99777L18.75 4.49777C20.1 4.34777 21.3 4.64777 22.35 5.54777C23.25 6.29777 23.7 7.34777 23.85 8.39777C24.75 8.54777 25.5 8.99777 26.1 9.74777C26.85 10.6478 27.15 11.8478 26.85 12.8978L25.35 17.0978C25.35 17.3978 25.05 17.6978 24.75 17.6978Z" fill="#0D4E88"/>
<path d="M24.6 17.6985H24.15C23.1 17.6985 22.05 16.7985 22.05 15.5985V13.3485C19.35 15.2985 15.75 16.0485 12.45 15.4485L11.1 15.1485C10.95 15.1485 10.65 15.4485 10.65 15.7485C10.65 16.7985 9.75 17.8485 8.55 17.8485H8.4C7.95 17.8485 7.65 17.5485 7.65 17.0985C7.65 16.6485 7.95 16.3485 8.4 16.3485H8.85C9.15 16.3485 9.45 16.0485 9.45 15.7485C9.45 14.6985 10.35 13.6485 11.55 13.6485L13.05 13.9485C16.05 14.5485 19.2 13.7985 21.6 11.9985C22.05 11.6985 22.65 11.6985 23.1 11.8485C23.55 12.1485 23.85 12.5985 23.85 13.0485V15.5985C23.85 15.8985 24.15 16.1985 24.45 16.1985H24.9C25.35 16.1985 25.65 16.4985 25.65 16.9485C25.65 17.3985 25.05 17.6985 24.6 17.6985ZM32.25 44.9985H0.75C0.3 44.9985 0 44.6985 0 44.2485V38.6985C0 35.6985 1.95 32.9985 4.8 31.9485L11.85 29.5485C12.3 29.3985 12.6 29.6985 12.75 29.9985C12.9 30.4485 12.6 30.7485 12.3 30.8985L5.25 33.2985C3 34.1985 1.5 36.2985 1.5 38.6985V43.4985H31.5V38.6985C31.5 36.2985 30 34.1985 27.75 33.4485L20.7 31.0485C20.25 30.8985 20.1 30.4485 20.25 30.1485C20.4 29.8485 20.85 29.5485 21.15 29.6985L28.2 32.0985C31.05 32.9985 33 35.6985 33 38.8485V44.3985C33 44.6985 32.7 44.9985 32.25 44.9985Z" fill="#0D4E88"/>
<path d="M32.25 45H24.75C24.3 45 24 44.7 24 44.25V43.05C24 38.85 27.15 35.25 31.35 34.8C31.65 34.8 31.95 34.95 32.1 35.1C32.7 36.15 33.15 37.5 33.15 38.7V44.25C33 44.7 32.7 45 32.25 45ZM25.5 43.5H31.5V38.7C31.5 37.95 31.35 37.05 30.9 36.3C27.75 36.9 25.35 39.75 25.35 43.05V43.5H25.5ZM8.25 45H0.75C0.3 45 0 44.7 0 44.25V38.7C0 37.5 0.3 36.15 1.05 35.1C1.2 34.8 1.5 34.65 1.8 34.8C5.85 35.25 9 38.85 9 43.05V44.25C9 44.7 8.7 45 8.25 45ZM1.5 43.5H7.5V43.05C7.5 39.75 5.1 37.05 1.95 36.3C1.65 37.05 1.5 37.95 1.5 38.7V43.5ZM24 24.9H18.75C18.3 24.9 18 24.6 18 24.15C18 23.7 18.3 23.4 18.75 23.4H24C25.65 23.4 27 22.05 27 20.4V17.85C27 17.4 27.3 17.1 27.75 17.1C28.2 17.1 28.5 17.4 28.5 17.85V20.4C28.5 22.8 26.4 24.9 24 24.9ZM8.25 21H6.75C5.55 21 4.5 19.95 4.5 18.75V17.25C4.5 16.05 5.55 15 6.75 15H7.5C7.95 15 8.25 15.3 8.25 15.75C8.25 16.2 7.95 16.5 7.5 16.5H6.75C6.3 16.5 6 16.8 6 17.25V18.75C6 19.2 6.3 19.5 6.75 19.5H7.5V18C7.5 17.55 7.8 17.25 8.25 17.25C8.7 17.25 9 17.55 9 18V20.25C9 20.7 8.7 21 8.25 21Z" fill="#0D4E88"/>
<path d="M26.25 21H24.75C24.3 21 24 20.7 24 20.25V18C24 17.55 24.3 17.25 24.75 17.25C25.2 17.25 25.5 17.55 25.5 18V19.5H26.25C26.7 19.5 27 19.2 27 18.75V17.25C27 16.8 26.7 16.5 26.25 16.5H25.5C25.05 16.5 24.75 16.2 24.75 15.75C24.75 15.3 25.05 15 25.5 15H26.25C27.45 15 28.5 16.05 28.5 17.25V18.75C28.5 19.95 27.45 21 26.25 21Z" fill="#0D4E88"/>
<path d="M36 27C33.45 27 31.2 26.25 29.1 24.75C28.8 24.45 28.65 24 28.95 23.7C29.25 23.4 29.7 23.25 30 23.55C31.8 24.75 33.9 25.5 36 25.5C41.85 25.5 46.5 20.85 46.5 15C46.5 9.15 41.85 4.5 36 4.5C32.85 4.5 30 5.85 27.9 8.25C27.6 8.55 27.15 8.55 26.85 8.4C26.55 8.1 26.55 7.65 26.7 7.35C29.1 4.5 32.4 3 36 3C42.6 3 48 8.4 48 15C48 21.6 42.6 27 36 27Z" fill="#0D4E88"/>
<g clip-path="url(#clip0_584_3641)">
<path d="M34.1981 8.1721C34.1449 8.17462 34.0946 8.19689 34.057 8.23455L33.2413 9.04981C33.2193 9.07169 33.2023 9.09809 33.1915 9.12718C33.1808 9.15627 33.1764 9.18736 33.1789 9.21829C33.1813 9.24922 33.1905 9.27924 33.2057 9.30629C33.2209 9.33333 33.2418 9.35674 33.267 9.37489L37.6842 12.5662C37.7254 12.5959 37.7759 12.6099 37.8265 12.6057C37.8771 12.6016 37.9246 12.5795 37.9605 12.5435L39.467 11.0375C39.4911 11.0134 39.5091 10.984 39.5195 10.9516C39.53 10.9192 39.5325 10.8847 39.5269 10.8511C39.5214 10.8175 39.5079 10.7857 39.4875 10.7584C39.4672 10.7311 39.4407 10.709 39.4101 10.694L34.3016 8.19349C34.2695 8.17781 34.2339 8.17046 34.1981 8.1721ZM34.2507 8.64475L38.9533 10.9464L37.7868 12.1128L33.7208 9.17514L34.2507 8.64475ZM40.6783 12.0307C40.6497 12.0303 40.6212 12.0357 40.5947 12.0465C40.5682 12.0573 40.5441 12.0733 40.5239 12.0936L39.0166 13.6005C38.9807 13.6365 38.9588 13.6842 38.9549 13.7349C38.951 13.7856 38.9652 13.8361 38.9952 13.8772L42.1861 18.294C42.2042 18.319 42.2276 18.3398 42.2546 18.3549C42.2815 18.37 42.3114 18.3791 42.3423 18.3816C42.3731 18.384 42.4041 18.3797 42.4331 18.3691C42.4621 18.3584 42.4884 18.3415 42.5103 18.3197L43.3256 17.5044C43.3572 17.4729 43.3781 17.4323 43.3855 17.3882C43.3929 17.3442 43.3863 17.299 43.3666 17.2589L40.8669 12.1509C40.8496 12.1155 40.8228 12.0855 40.7895 12.0644C40.7562 12.0433 40.7177 12.0313 40.6783 12.0307ZM40.6141 12.6081L42.9154 17.3098L42.3858 17.8393L39.4477 13.7741L40.6141 12.6081Z" fill="#0D4E88"/>
<path d="M41.5603 8.82696C41.2596 8.82696 40.958 8.9416 40.7292 9.17043L33.9513 15.9479L33.6635 15.7819L33.0184 15.4077L32.3726 15.0342C32.3317 15.0107 32.2843 15.0013 32.2376 15.0075C32.1909 15.0136 32.1475 15.0351 32.1142 15.0685L31.2989 15.8837C31.2774 15.9052 31.2608 15.9311 31.25 15.9596C31.2393 15.9881 31.2348 16.0185 31.2368 16.0489C31.2388 16.0792 31.2472 16.1088 31.2615 16.1357C31.2759 16.1625 31.2958 16.186 31.3199 16.2045L33.6074 17.9531L35.3569 20.2406C35.3754 20.2648 35.3988 20.2847 35.4256 20.2991C35.4525 20.3135 35.4821 20.3219 35.5124 20.324C35.5428 20.326 35.5732 20.3215 35.6017 20.3108C35.6302 20.3001 35.6561 20.2835 35.6777 20.262L36.4929 19.4468C36.5263 19.4133 36.5476 19.3698 36.5536 19.323C36.5597 19.2762 36.5501 19.2287 36.5263 19.188L35.7795 17.8971L35.6126 17.6096L42.391 10.8313C42.6108 10.6108 42.7342 10.3122 42.7342 10.0009C42.7342 9.68955 42.6108 9.39092 42.391 9.17043C42.282 9.06128 42.1525 8.97474 42.0099 8.9158C41.8673 8.85685 41.7146 8.82666 41.5603 8.82696ZM41.5603 9.25127C41.7506 9.25127 41.941 9.32527 42.0885 9.47284C42.3837 9.76798 42.3837 10.2334 42.0885 10.5285L35.1977 17.4193C35.1656 17.4514 35.1446 17.493 35.1376 17.5379C35.1307 17.5828 35.1383 17.6288 35.1593 17.6691L35.2178 17.7812C35.2192 17.7839 35.2206 17.7866 35.2221 17.7893L35.4095 18.1118L36.0746 19.2603L35.5481 19.7868L33.9299 17.6708C33.9184 17.6557 33.9049 17.6421 33.8897 17.6306L31.7746 16.0133L32.0094 15.7781L32.3007 15.4872L32.8037 15.7776L33.4496 16.1519L33.7721 16.338C33.7749 16.3398 33.7778 16.3415 33.7807 16.3431L33.8914 16.4009C33.9319 16.422 33.978 16.4297 34.0231 16.4228C34.0682 16.4158 34.1099 16.3947 34.1421 16.3624L41.0316 9.47284C41.1008 9.40282 41.1832 9.34719 41.274 9.30917C41.3648 9.27114 41.4618 9.25146 41.5603 9.25127Z" fill="#0D4E88"/>
<path fill-rule="evenodd" clip-rule="evenodd" d="M34.5733 16.7674C34.5177 16.7689 34.465 16.7919 34.4261 16.8316L33.3392 17.9197C33.3188 17.9395 33.3025 17.9631 33.2913 17.9892C33.2801 18.0153 33.2742 18.0433 33.274 18.0717C33.2737 18.1001 33.2791 18.1283 33.2899 18.1546C33.3006 18.1808 33.3165 18.2047 33.3366 18.2248C33.3567 18.2449 33.3805 18.2608 33.4068 18.2715C33.4331 18.2823 33.4613 18.2877 33.4897 18.2874C33.5181 18.2872 33.5461 18.2813 33.5722 18.2701C33.5983 18.2589 33.6219 18.2426 33.6417 18.2221L34.7281 17.1344C34.7589 17.1044 34.78 17.0658 34.7885 17.0236C34.797 16.9815 34.7926 16.9377 34.7759 16.8981C34.7592 16.8584 34.7309 16.8248 34.6948 16.8015C34.6586 16.7782 34.6163 16.7663 34.5733 16.7674Z" fill="#0D4E88"/>
<path fill-rule="evenodd" clip-rule="evenodd" d="M34.0719 10.3933L33.5279 10.9374L33.8303 11.2398L34.3744 10.6957L34.0719 10.3933ZM34.8872 11.2086L33.7995 12.2955L34.1019 12.5979L35.1896 11.5114L34.8872 11.2086ZM40.8648 17.187L40.3216 17.7303L40.624 18.0322L41.1672 17.489L40.8648 17.187ZM40.05 16.3718L38.9622 17.4582L39.2646 17.7611L40.3524 16.6742L40.05 16.3718Z" fill="#0D4E88"/>
<path d="M34.1981 8.1721C34.1449 8.17462 34.0946 8.19689 34.057 8.23455L33.2413 9.04981C33.2193 9.07169 33.2023 9.09809 33.1915 9.12718C33.1808 9.15627 33.1764 9.18736 33.1789 9.21829C33.1813 9.24922 33.1905 9.27924 33.2057 9.30629C33.2209 9.33333 33.2418 9.35674 33.267 9.37489L37.6842 12.5662C37.7254 12.5959 37.7759 12.6099 37.8265 12.6057C37.8771 12.6016 37.9246 12.5795 37.9605 12.5435L39.467 11.0375C39.4911 11.0134 39.5091 10.984 39.5195 10.9516C39.53 10.9192 39.5325 10.8847 39.5269 10.8511C39.5214 10.8175 39.5079 10.7857 39.4875 10.7584C39.4672 10.7311 39.4407 10.709 39.4101 10.694L34.3016 8.19349C34.2695 8.17781 34.2339 8.17046 34.1981 8.1721ZM34.2507 8.64475L38.9533 10.9464L37.7868 12.1128L33.7208 9.17514L34.2507 8.64475ZM40.6783 12.0307C40.6497 12.0303 40.6212 12.0357 40.5947 12.0465C40.5682 12.0573 40.5441 12.0733 40.5239 12.0936L39.0166 13.6005C38.9807 13.6365 38.9588 13.6842 38.9549 13.7349C38.951 13.7856 38.9652 13.8361 38.9952 13.8772L42.1861 18.294C42.2042 18.319 42.2276 18.3398 42.2546 18.3549C42.2815 18.37 42.3114 18.3791 42.3423 18.3816C42.3731 18.384 42.4041 18.3797 42.4331 18.3691C42.4621 18.3584 42.4884 18.3415 42.5103 18.3197L43.3256 17.5044C43.3572 17.4729 43.3781 17.4323 43.3855 17.3882C43.3929 17.3442 43.3863 17.299 43.3666 17.2589L40.8669 12.1509C40.8496 12.1155 40.8228 12.0855 40.7895 12.0644C40.7562 12.0433 40.7177 12.0313 40.6783 12.0307ZM40.6141 12.6081L42.9154 17.3098L42.3858 17.8393L39.4477 13.7741L40.6141 12.6081Z" stroke="#0D4E88" stroke-width="0.5"/>
<path d="M41.5603 8.82696C41.2596 8.82696 40.958 8.9416 40.7292 9.17043L33.9513 15.9479L33.6635 15.7819L33.0184 15.4077L32.3726 15.0342C32.3317 15.0107 32.2843 15.0013 32.2376 15.0075C32.1909 15.0136 32.1475 15.0351 32.1142 15.0685L31.2989 15.8837C31.2774 15.9052 31.2608 15.9311 31.25 15.9596C31.2393 15.9881 31.2348 16.0185 31.2368 16.0489C31.2388 16.0792 31.2472 16.1088 31.2615 16.1357C31.2759 16.1625 31.2958 16.186 31.3199 16.2045L33.6074 17.9531L35.3569 20.2406C35.3754 20.2648 35.3988 20.2847 35.4256 20.2991C35.4525 20.3135 35.4821 20.3219 35.5124 20.324C35.5428 20.326 35.5732 20.3215 35.6017 20.3108C35.6302 20.3001 35.6561 20.2835 35.6777 20.262L36.4929 19.4468C36.5263 19.4133 36.5476 19.3698 36.5536 19.323C36.5597 19.2762 36.5501 19.2287 36.5263 19.188L35.7795 17.8971L35.6126 17.6096L42.391 10.8313C42.6108 10.6108 42.7342 10.3122 42.7342 10.0009C42.7342 9.68955 42.6108 9.39092 42.391 9.17043C42.282 9.06128 42.1525 8.97474 42.0099 8.9158C41.8673 8.85685 41.7146 8.82666 41.5603 8.82696ZM41.5603 9.25127C41.7506 9.25127 41.941 9.32527 42.0885 9.47284C42.3837 9.76798 42.3837 10.2334 42.0885 10.5285L35.1977 17.4193C35.1656 17.4514 35.1446 17.493 35.1376 17.5379C35.1307 17.5828 35.1383 17.6288 35.1593 17.6691L35.2178 17.7812C35.2192 17.7839 35.2206 17.7866 35.2221 17.7893L35.4095 18.1118L36.0746 19.2603L35.5481 19.7868L33.9299 17.6708C33.9184 17.6557 33.9049 17.6421 33.8897 17.6306L31.7746 16.0133L32.0094 15.7781L32.3007 15.4872L32.8037 15.7776L33.4496 16.1519L33.7721 16.338C33.7749 16.3398 33.7778 16.3415 33.7807 16.3431L33.8914 16.4009C33.9319 16.422 33.978 16.4297 34.0231 16.4228C34.0682 16.4158 34.1099 16.3947 34.1421 16.3624L41.0316 9.47284C41.1008 9.40282 41.1832 9.34719 41.274 9.30917C41.3648 9.27114 41.4618 9.25146 41.5603 9.25127Z" stroke="#0D4E88" stroke-width="0.5"/>
<path fill-rule="evenodd" clip-rule="evenodd" d="M34.5733 16.7674C34.5177 16.7689 34.465 16.7919 34.4261 16.8316L33.3392 17.9197C33.3188 17.9395 33.3025 17.9631 33.2913 17.9892C33.2801 18.0153 33.2742 18.0433 33.274 18.0717C33.2737 18.1001 33.2791 18.1283 33.2899 18.1546C33.3006 18.1808 33.3165 18.2047 33.3366 18.2248C33.3567 18.2449 33.3805 18.2608 33.4068 18.2715C33.4331 18.2823 33.4613 18.2877 33.4897 18.2874C33.5181 18.2872 33.5461 18.2813 33.5722 18.2701C33.5983 18.2589 33.6219 18.2426 33.6417 18.2221L34.7281 17.1344C34.7589 17.1044 34.78 17.0658 34.7885 17.0236C34.797 16.9815 34.7926 16.9377 34.7759 16.8981C34.7592 16.8584 34.7309 16.8248 34.6948 16.8015C34.6586 16.7782 34.6163 16.7663 34.5733 16.7674Z" stroke="#0D4E88" stroke-width="0.5"/>
<path fill-rule="evenodd" clip-rule="evenodd" d="M34.0719 10.3933L33.5279 10.9374L33.8303 11.2398L34.3744 10.6957L34.0719 10.3933ZM34.8872 11.2086L33.7995 12.2955L34.1019 12.5979L35.1896 11.5114L34.8872 11.2086ZM40.8648 17.187L40.3216 17.7303L40.624 18.0322L41.1672 17.489L40.8648 17.187ZM40.05 16.3718L38.9622 17.4582L39.2646 17.7611L40.3524 16.6742L40.05 16.3718Z" stroke="#0D4E88" stroke-width="0.5"/>
</g>
<defs>
<clipPath id="clip0_584_3641">
<rect width="13.6875" height="13.6875" fill="white" transform="translate(30.4688 7.3125)"/>
</clipPath>
</defs>
</svg>
