<svg width="27" height="28" viewBox="0 0 27 28" fill="none" xmlns="http://www.w3.org/2000/svg">
<path fill-rule="evenodd" clip-rule="evenodd" d="M12.6037 0.890055C11.124 1.04211 9.99493 1.30405 8.8312 1.7654C7.20485 2.4102 5.8822 3.2664 4.60498 4.50136C2.16771 6.85791 0.831106 9.82858 0.689238 13.2043C0.597722 15.3828 1.14697 17.7518 2.18814 19.6687C2.31307 19.8987 2.41532 20.1181 2.41526 20.156C2.41526 20.194 1.91867 21.6874 1.31173 23.4746C0.704841 25.2619 0.208252 26.7642 0.208252 26.813C0.208252 26.9205 0.415305 27.125 0.523965 27.125C0.566925 27.125 2.1286 26.6402 3.99429 26.0477C5.85998 25.4552 7.41945 24.9704 7.45974 24.9704C7.50003 24.9704 7.79624 25.0953 8.11796 25.2481C9.17057 25.7478 10.481 26.1404 11.7568 26.3382C12.5865 26.4667 14.5711 26.4675 15.4011 26.3396C18.2203 25.9051 20.7445 24.6441 22.7165 22.685C23.9247 21.4846 24.8987 20.0297 25.5308 18.4808C25.9346 17.4913 26.1954 16.5138 26.3929 15.2489C26.4799 14.692 26.4801 12.7126 26.3932 12.0939C25.9616 9.02013 24.5905 6.36368 22.3769 4.31237C20.4414 2.5188 18.0945 1.40045 15.4011 0.988091C14.8849 0.909088 13.046 0.844654 12.6037 0.890055ZM15.1828 3.6527C18.2003 4.15868 20.8053 5.92034 22.3738 8.51579C23.0291 9.60003 23.548 11.0787 23.7196 12.3504C23.8011 12.9541 23.8022 14.3832 23.7217 14.9667C23.5856 15.9526 23.1757 17.2827 22.7407 18.1499C21.7393 20.1461 19.9408 21.8941 17.9365 22.819C16.5987 23.4364 15.4084 23.7208 13.9382 23.7746C11.9187 23.8483 10.0348 23.3671 8.32388 22.3405C8.07397 22.1906 7.8372 22.0847 7.75928 22.088C7.68542 22.0912 6.87435 22.3333 5.95688 22.626C5.03941 22.9188 4.2829 23.1543 4.27577 23.1493C4.26858 23.1444 4.50535 22.4196 4.80187 21.5386C5.09833 20.6577 5.3406 19.8748 5.34014 19.7988C5.33962 19.7158 5.20448 19.4563 5.00102 19.1478C4.06794 17.7328 3.51053 16.0573 3.39335 14.3158C3.34464 13.5912 3.38719 12.6113 3.49329 12.017C4.07431 8.76106 6.09921 6.06034 9.06217 4.58929C10.1668 4.04089 11.2752 3.72914 12.7321 3.55702C13.105 3.51295 14.7271 3.57631 15.1828 3.6527ZM9.57544 7.70596C8.77802 7.83175 8.42017 7.98037 8.04487 8.34168C7.12904 9.22328 6.86578 10.9614 7.42376 12.4431C7.95438 13.8521 9.7363 16.1703 11.2138 17.3737C12.6488 18.5426 14.29 19.3171 16.171 19.7132C16.6699 19.8184 17.5882 19.8178 17.9884 19.7122C18.7537 19.5102 19.675 18.8477 19.9739 18.2843C20.2455 17.7724 20.3711 16.6822 20.1971 16.3461C20.1303 16.217 19.9204 16.0955 18.9268 15.6108C18.2721 15.2914 17.5824 14.9697 17.394 14.8959C16.7654 14.6492 16.6086 14.7078 16.0567 15.3959C15.3979 16.217 15.2802 16.3519 15.2234 16.3512C15.1941 16.3509 14.9904 16.2722 14.7708 16.1764C13.9317 15.8102 12.7595 14.9056 11.9209 13.9772C11.5627 13.5806 10.9869 12.8232 10.9869 12.7486C10.9869 12.7237 11.1437 12.5222 11.3354 12.3009C11.8217 11.7394 11.9859 11.4251 11.9795 11.0679C11.9753 10.8297 11.8893 10.586 11.4269 9.50323C11.1257 8.79784 10.8184 8.13253 10.744 8.02474C10.5078 7.68267 10.2203 7.60423 9.57544 7.70596Z" fill="white"/>
</svg>
